# xmcd
#
# Track frame offsets:
# 150
# 15438
# 39288
# 59780
# 80248
# 92758
# 113050
# 144368
# 161930
# 176870
#
# Disc length: 2600 seconds
#
#
# Revision: 0
# Processed by: cddbd v1.5.2PL0 Copyright (c) Steve Scherf et al.
# Submitted via: FreeRIP 2.951 
#
DISCID=860a260a
DTITLE=Bintangs - Live File CD2
DYEAR=1900
DGENRE=Rock
TTITLE0=Gone dead train
TTITLE1=Agnes Grey
TTITLE2=Do John
TTITLE3=Rosemary nymphet
TTITLE4=Snake in the grass
TTITLE5=I wanna be your cigarette
TTITLE6=Cross-eyed MAry Jane
TTITLE7=She's gone gone gone
TTITLE8=Mona Lisa
TTITLE9=Blues on the ceiling
EXTD=Live at Paradiso
EXTT0=
EXTT1=
EXTT2=
EXTT3=
EXTT4=
EXTT5=
EXTT6=
EXTT7=
EXTT8=
EXTT9=
PLAYORDER=
